<svg xmlns="http://www.w3.org/2000/svg" viewBox="0 0 800 800" width="32" height="32">
	<style>
		tspan { white-space:pre }
		.shp0 { fill: #ffffff } 
	</style>
	<path id="Background" class="shp0" d="M402.5 800C179.92 800 0 621.2 0 400C0 178.8 179.92 0 402.5 0C625.08 0 805 178.8 805 400C805 621.2 625.08 800 402.5 800Z" />
	<path id="PT " fill="#000000" d="M391.45 293.05Q391.45 308.45 378.85 322.8Q325.65 383.7 267.9 418Q253.55 426.75 235.35 434.1Q204.55 447.4 203.85 447.4Q206.3 474.7 212.6 491.5Q214.7 496.75 221.7 503.75Q229.05 510.75 229.05 511.8Q229.05 512.5 183.55 558Q166.05 544 157.3 526.85Q150.65 513.55 147.5 494.65Q145.4 478.55 142.95 461.75Q140.5 444.95 140.5 404Q140.5 376 144 346.6Q144.35 345.2 145.4 340.3Q146.45 335.4 146.45 334.7Q146.45 334.35 141.55 330.15Q137 325.6 137 323.85Q137 323.85 150.65 309.15Q150.65 308.45 151 306.7Q168.5 288.5 193 265.4Q196.5 268.9 197.9 268.9Q196.15 268.9 215.4 260.85Q254.25 243.7 297.3 243.7Q331.6 243.7 358.2 255.6Q369.75 260.5 379.9 270.65Q391.45 282.55 391.45 293.05ZM332.3 314.05Q299.05 302.15 272.1 302.15Q257.05 302.15 237.8 305.3Q215.05 309.15 204.2 315.1Q198.95 352.2 198.6 394.9L202.45 395.95Q229.4 387.9 234.3 386.15Q253.2 379.85 273.85 369.35Q286.8 363.05 305.35 350.8Q315.15 344.15 328.45 334Q334.4 327 332.3 314.05ZM700.5 277.65Q700.5 280.1 678.45 302.5Q656.4 324.55 655.35 324.55Q654.3 324.55 650.45 323.5Q646.6 322.1 644.85 322.1Q625.25 319.3 587.1 315.8Q582.9 325.6 582.55 331.55Q579.4 378.45 579.4 393.15Q579.4 439.35 593.4 483.1Q593.4 487.3 595.15 494.65Q595.85 496.75 601.1 503.4Q606.35 509.7 606.35 511.1Q606.35 515.3 562.25 556.95Q559.45 559.05 557 559.05Q555.95 559.05 547.9 551.7Q539.85 544 534.95 538.05Q534.6 535.6 533.55 530.35Q531.8 527.55 529.35 521.6Q529.35 518.45 528.65 511.1Q526.55 506.9 523.4 497.8Q523.4 496.05 516.05 451.95Q514.65 443.55 514.65 420.8Q514.65 366.9 522 343.1Q523.4 335.05 526.9 319.3Q526.55 318.6 523.4 318.6Q504.5 318.6 467.4 328.75Q466.35 329.1 454.1 333.65Q445 336.8 440.8 336.8Q436.6 336.8 429.95 330.5Q423.65 323.85 417.35 317.2Q417.7 317.2 447.45 288.15Q466 269.95 467.4 269.95Q468.45 269.95 469.15 271Q470.2 272.05 471.6 272.05Q472.65 272.05 487.35 267.15Q503.45 261.9 508.35 260.85Q555.6 251.05 610.2 251.05Q623.15 251.05 637.85 253.15Q647.65 254.9 657.45 256.65Q665.5 257 681.25 259.1Q683.35 259.45 691.75 267.85Q700.5 275.9 700.5 277.65Z" />
</svg>